HIERARCHY
ROOT root
{
	OFFSET	0	13.1	24.9
	CHANNELS 6  Xposition Yposition Zposition Xrotation Yrotation Zrotation
	JOINT spine_1
	{
		OFFSET	0	9.99999	0
		CHANNELS 3  Xrotation Yrotation Zrotation
		JOINT spine_2
		{
			OFFSET	0	112	-10
			CHANNELS 3  Xrotation Yrotation Zrotation
			JOINT spine_3
			{
				OFFSET	0	206.5	19.3
				CHANNELS 3  Xrotation Yrotation Zrotation
				JOINT spine_4
				{
					OFFSET	0	110.4	14.6
					CHANNELS 3  Xrotation Yrotation Zrotation
					JOINT neck_1
					{
						OFFSET	0	71.8	-50.3
						CHANNELS 3  Xrotation Yrotation Zrotation
						JOINT neck_2
						{
							OFFSET	0	86.2	-25.8
							CHANNELS 3  Xrotation Yrotation Zrotation
							JOINT head_ee
							{
								OFFSET	0	179.8	-8.7
								CHANNELS 3  Xrotation Yrotation Zrotation
								End Site
								{
									OFFSET	1	0	0
								}
							}
						}
					}
					JOINT left_clavicle
					{
						OFFSET	-43.2	22.4	-70.8
						CHANNELS 3  Xrotation Yrotation Zrotation
						JOINT left_shoulder
						{
							OFFSET	-93.9	-5.79999	48.7
							CHANNELS 3  Xrotation Yrotation Zrotation
							JOINT left_elbow
							{
								OFFSET	-291.4	-30.8	15.2
								CHANNELS 3  Xrotation Yrotation Zrotation
								JOINT left_lowarm_twist
								{
									OFFSET	-110.7	-3.89999	13.6
									CHANNELS 3  Xrotation Yrotation Zrotation
									JOINT left_hand
									{
										OFFSET	-110.7	-3.89999	13.6
										CHANNELS 3  Xrotation Yrotation Zrotation
										JOINT left_ee
										{
											OFFSET	-80.8	-5.10001	12.1
											CHANNELS 3  Xrotation Yrotation Zrotation
											End Site
											{
												OFFSET	1	0	0
											}
										}
									}
								}
							}
						}
					}
					JOINT right_clavicle
					{
						OFFSET	43.2	22.4	-70.8
						CHANNELS 3  Xrotation Yrotation Zrotation
						JOINT right_shoulder
						{
							OFFSET	93.9	-5.79999	48.7
							CHANNELS 3  Xrotation Yrotation Zrotation
							JOINT right_elbow
							{
								OFFSET	291.4	-30.8	15.2
								CHANNELS 3  Xrotation Yrotation Zrotation
								JOINT right_lowarm_twist
								{
									OFFSET	110.7	-3.89999	13.6
									CHANNELS 3  Xrotation Yrotation Zrotation
									JOINT right_hand
									{
										OFFSET	110.7	-3.89999	13.6
										CHANNELS 3  Xrotation Yrotation Zrotation
										JOINT right_ee
										{
											OFFSET	80.8	-5.10001	12.1
											CHANNELS 3  Xrotation Yrotation Zrotation
											End Site
											{
												OFFSET	1	0	0
											}
										}
									}
								}
							}
						}
					}
				}
			}
		}
	}
	JOINT left_hip
	{
		OFFSET	-82.8	-127.5	0.300001
		CHANNELS 3  Xrotation Yrotation Zrotation
		JOINT left_knee
		{
			OFFSET	-28.2	-396.7	2.2
			CHANNELS 3  Xrotation Yrotation Zrotation
			JOINT left_ankle
			{
				OFFSET	-11.7	-411.3	35.4
				CHANNELS 3  Xrotation Yrotation Zrotation
				JOINT left_toes
				{
					OFFSET	0	-60	-88.6
					CHANNELS 3  Xrotation Yrotation Zrotation
					JOINT left_foot_ee
					{
						OFFSET	-22.5	-16.5	-42.2
						CHANNELS 3  Xrotation Yrotation Zrotation
						End Site
						{
							OFFSET	1	0	0
						}
					}
				}
			}
		}
	}
	JOINT right_hip
	{
		OFFSET	82.8	-127.5	0.300001
		CHANNELS 3  Xrotation Yrotation Zrotation
		JOINT right_knee
		{
			OFFSET	28.2	-396.7	2.2
			CHANNELS 3  Xrotation Yrotation Zrotation
			JOINT right_ankle
			{
				OFFSET	11.7	-411.3	35.4
				CHANNELS 3  Xrotation Yrotation Zrotation
				JOINT right_toes
				{
					OFFSET	0	-60	-88.6
					CHANNELS 3  Xrotation Yrotation Zrotation
					JOINT right_foot_ee
					{
						OFFSET	22.5	-16.5	-42.2
						CHANNELS 3  Xrotation Yrotation Zrotation
						End Site
						{
							OFFSET	1	0	0
						}
					}
				}
			}
		}
	}
}
MOTION
Frames: 13
Frame Time: 0.02
3417.73 728.392 -1508.11 -4.56669 64.2037 0.159388 0.234841 0.39432 3.45011 0.241445 0.174116 3.46818 0.254821 -0.543997 3.42972 0.238409 0.00415021 3.47254 -11.4961 18.3917 -3.47666 -12.2558 37.0693 2.09411 -0.0 0.0 -0.0 -1.78211 18.3904 -0.544956 -3.0177 -14.9189 63.3909 1.69291 -39.9805 0.615883 -40.1957 -2.972 4.07468 -1.79376 27.6385 1.01196 -0.0 0.0 -0.0 12.0926 25.6635 -23.6303 -5.27643 20.6175 -69.1303 0.418758 11.7195 -0.0429772 28.4847 -0.110697 3.59977 -0.678267 -3.33787 3.08361 0.0 0.0 0.0 12.4536 24.2739 -3.51669 -41.8649 -0.589655 6.25736 36.9358 3.07314 -4.5861 -28.9995 0.0 0.0 -0.0 0.0 -0.0 2.87102 14.3306 3.14671 -12.2429 -0.307409 -1.85014 37.9869 -2.4993 4.68443 -9.73232 0.0 0.0 0.0 0.0 0.0 
3416.66 730.483 -1518.52 -4.83098 64.7947 0.890075 0.329107 0.436103 3.29937 0.335134 0.225391 3.3204 0.350728 -0.457721 3.29644 0.335573 0.0683357 3.32733 -12.4491 18.5829 -1.60892 -13.371 36.3224 4.30076 -0.0 0.0 -0.0 -2.80118 18.2498 -2.11924 -5.93008 -15.5092 64.5877 1.86172 -42.6793 0.727392 -39.0405 -2.8497 3.9909 -1.52113 28.0359 2.67704 -0.0 0.0 -0.0 12.1716 25.4596 -23.8336 -1.93854 21.3428 -70.5133 0.454779 12.6961 -0.0505943 28.0338 -0.122928 3.54347 -0.616984 -2.43332 3.0695 0.0 0.0 0.0 17.8875 22.8767 -4.68209 -51.4041 -1.34664 7.51333 36.2748 1.88869 -4.52908 -27.833 0.0 0.0 -0.0 0.0 -0.0 1.3226 18.0234 2.52381 -11.1173 -0.29574 -1.67783 38.7217 -1.16183 4.75669 -10.0817 0.0 0.0 0.0 0.0 0.0 
3407.17 728.575 -1525.41 -4.12687 64.3704 -0.158574 0.23864 0.53835 3.37704 0.244926 0.322497 3.40441 0.267035 -0.384659 3.39796 0.250959 0.156489 3.41606 -12.0105 18.8576 -1.01544 -12.8687 36.4374 4.78858 -0.0 0.0 -0.0 -3.33958 17.291 -3.13828 -10.7896 -13.7977 65.9445 1.81557 -41.9636 0.69632 -36.0534 -2.54155 3.76304 -1.18826 28.2525 4.57831 -0.0 0.0 -0.0 12.9389 25.4602 -25.5983 0.800962 22.0233 -70.3181 0.427724 11.9632 -0.044817 27.2909 -0.14211 3.45051 -0.528106 -0.873445 3.15189 0.0 0.0 0.0 21.7515 20.9636 -5.29821 -59.2484 -2.11937 8.44212 36.6632 4.79743 -4.55731 -27.8434 0.0 0.0 -0.0 0.0 -0.0 1.42275 14.3725 2.31 -11.5798 -0.300945 -1.74861 39.7324 -1.22583 4.84498 -10.3951 0.0 0.0 0.0 0.0 0.0 
3397.89 723.314 -1535.44 -4.31302 63.3366 0.61587 0.273614 0.619859 3.37693 0.279867 0.403848 3.40948 0.306904 -0.303565 3.41985 0.290666 0.24002 3.42489 -11.519 19.193 -0.793018 -12.3174 36.8864 4.92596 -0.0 0.0 -0.0 -3.58199 16.9246 -3.59329 -16.072 -14.4055 66.4163 1.71848 -40.4038 0.632385 -33.286 -2.26706 3.53796 -0.904084 28.51 6.22793 -0.0 0.0 -0.0 13.0508 26.0869 -25.7842 4.53334 22.7616 -71.4159 0.325331 9.15524 -0.0260477 27.1954 -0.144487 3.43855 -0.400376 -0.350265 2.52429 0.0 0.0 0.0 22.7629 18.1088 -5.99101 -62.6321 -2.49081 8.80888 37.9411 7.52461 -4.67881 -26.9722 0.0 0.0 -0.0 0.0 -0.0 0.0871097 15.8003 1.38063 -9.8964 -0.279258 -1.49123 39.7873 2.06661 4.87599 -11.0169 0.0 0.0 0.0 0.0 0.0 
3397.29 717.235 -1538.25 -5.49562 63.7813 2.05084 0.322643 0.490141 3.25196 0.328482 0.282331 3.27652 0.347185 -0.393114 3.2651 0.332333 0.127192 3.28619 -8.51089 18.9512 -1.25101 -8.76286 36.3822 3.26125 -0.0 0.0 -0.0 -3.17561 16.2157 -3.09737 -20.4325 -16.3132 66.4164 1.64515 -39.1756 0.585454 -29.7239 -1.93036 3.22931 -0.322001 28.9853 9.57716 -0.0 0.0 -0.0 13.5127 26.8332 -26.7625 8.56219 23.7926 -71.6607 0.216117 6.11086 -0.0115359 26.3793 -0.163997 3.33612 -0.296591 1.93293 2.80705 0.0 0.0 0.0 23.4217 17.2247 -7.50495 -64.0194 -2.64928 8.95286 39.7048 9.79568 -4.84899 -26.662 0.0 0.0 -0.0 0.0 -0.0 -0.768446 14.151 0.858895 -8.12649 -0.248311 -1.22141 40.3546 0.968108 4.91405 -10.56 0.0 0.0 0.0 0.0 0.0 
3386.76 719.765 -1542.92 -5.5799 64.7964 1.99911 0.389327 0.519053 3.31583 0.395391 0.307127 3.3421 0.415881 -0.378218 3.33481 0.400397 0.152894 3.35269 -9.07315 19.6541 -1.20626 -9.45685 37.7477 3.71383 -0.0 0.0 -0.0 -2.66787 14.8284 -2.54979 -24.493 -15.6213 66.7769 1.49806 -36.5765 0.49512 -27.8763 -1.76348 3.0612 -0.231439 29.1235 10.1213 -0.0 0.0 -0.0 13.9388 26.5883 -27.786 12.3148 24.8182 -71.7635 0.16568 4.69203 -0.00678765 26.4261 -0.162918 3.342 -0.21903 3.62716 3.0098 0.0 0.0 0.0 25.5982 14.8646 -8.98694 -63.5098 -2.59066 8.90042 40.6525 10.2362 -4.93515 -29.2842 0.0 0.0 -0.0 0.0 -0.0 -2.24859 15.535 1.45981 -7.5611 -0.236671 -1.13543 38.9511 2.23601 4.80481 -10.8242 0.0 0.0 0.0 0.0 0.0 
3377.97 721.471 -1542.33 -5.172 63.9292 1.10294 0.195252 0.72996 3.49681 0.201912 0.506113 3.53611 0.236651 -0.233645 3.56446 0.219077 0.331861 3.55667 -9.42774 19.2927 -0.3733 -9.84952 36.5538 4.55195 -0.0 0.0 -0.0 -2.56097 15.7588 -2.20791 -27.8051 -17.2994 66.4152 1.42114 -35.1432 0.450059 -26.6018 -1.65159 2.94216 -0.147703 28.9936 10.5321 -0.0 0.0 -0.0 14.1842 26.5077 -28.3709 13.2805 25.4318 -71.6769 0.258349 7.29316 -0.0164648 26.1221 -0.169843 3.30379 0.0318784 7.09985 2.79829 0.0 0.0 0.0 26.5875 14.3991 -9.88459 -61.9753 -2.41702 8.7394 39.9195 11.4154 -4.8814 -29.4943 0.0 0.0 -0.0 0.0 -0.0 -3.38973 13.4516 2.06961 -5.86802 -0.196742 -0.878686 37.0385 -0.0306402 4.61164 -7.94532 0.0 0.0 0.0 0.0 0.0 
3371.08 728.517 -1541.93 -5.56199 63.6509 0.729974 0.220321 0.887273 3.67753 0.227608 0.651632 3.72644 0.273992 -0.127758 3.78075 0.254357 0.470516 3.75358 -10.5117 19.066 0.299221 -11.0921 35.8246 5.53133 -0.0 0.0 -0.0 -1.47969 16.0757 -0.441716 -30.5747 -16.7313 65.0718 1.2208 -31.1622 0.340432 -25.5532 -1.56153 2.84239 -0.172453 29.0993 10.4345 -0.0 0.0 -0.0 14.194 26.8237 -28.3527 13.9335 26.0237 -71.9179 0.449205 12.5454 -0.0493763 25.8051 -0.176847 3.2639 0.322407 11.2097 2.58974 0.0 0.0 0.0 26.5263 16.2636 -10.391 -55.246 -1.7091 7.98126 33.0513 11.0119 -4.22272 -29.7188 0.0 0.0 -0.0 0.0 -0.0 -5.04589 13.6758 3.36646 -3.31561 -0.122244 -0.494087 32.6946 -1.07607 4.18356 -4.55091 0.0 0.0 0.0 0.0 0.0 
3359.48 730.807 -1539.09 -5.82676 63.1693 0.436135 0.290789 1.27445 3.71672 0.297877 1.03554 3.79014 0.370848 0.242399 3.92139 0.35042 0.85821 3.83413 -9.06127 18.6203 -0.952702 -9.39196 35.6267 3.66484 -0.0 0.0 -0.0 -0.654582 16.2576 0.882083 -32.2222 -16.1691 64.8004 1.04213 -27.3039 0.253124 -24.7659 -1.49514 2.76642 0.0468435 28.1882 11.3211 -0.0 0.0 -0.0 13.9765 26.9458 -27.828 14.3845 25.1922 -71.341 0.641786 17.6367 -0.0995653 26.6468 -0.157763 3.36973 0.631881 17.123 3.05314 0.0 0.0 0.0 25.6984 18.3664 -10.3842 -48.1739 -1.06688 7.10211 26.1034 9.63479 -3.46254 -30.1227 0.0 0.0 -0.0 0.0 -0.0 -5.72108 13.7045 4.13469 -2.90489 -0.108657 -0.432517 32.4694 -2.36435 4.15394 -0.731192 0.0 0.0 0.0 0.0 0.0 
3345.02 732.202 -1536.68 -7.0779 64.4649 1.4696 0.396255 1.20024 3.7118 0.403405 0.961789 3.78052 0.470982 0.1788 3.89668 0.45067 0.791512 3.81975 -8.06802 17.6897 -2.42718 -8.20118 34.7683 1.62028 -0.0 0.0 -0.0 0.144728 16.8061 2.19644 -35.0503 -14.9104 64.0758 0.920077 -24.5022 0.19979 -23.7115 -1.40786 2.66327 0.250184 24.8559 11.3153 -0.0 0.0 -0.0 13.661 27.3794 -27.0362 14.5137 24.629 -71.0623 0.827927 22.2999 -0.163185 26.2879 -0.16609 3.32464 1.10772 22.5092 2.26375 0.0 0.0 0.0 24.582 24.8659 -10.8392 -26.6243 0.158489 4.04609 7.10437 3.18733 -1.02321 -32.4741 0.0 0.0 -0.0 0.0 -0.0 -6.57766 13.5973 5.13867 -2.54184 -0.09628 -0.378175 30.5849 -3.79771 3.95337 4.1809 -0.0 -0.0 0.0 0.0 0.0 
3332.3 722.719 -1538.35 -8.3633 66.8003 3.56592 0.526006 0.91462 3.57102 0.532838 0.685687 3.62189 0.579404 -0.0531857 3.68576 0.56084 0.529184 3.64801 -6.30579 17.2176 -3.80307 -6.12771 34.6704 -0.482573 -0.0 0.0 -0.0 0.623754 17.4802 3.00631 -37.4049 -13.5243 63.0434 0.767117 -20.8071 0.140843 -23.3612 -1.37929 2.62865 0.40747 21.1619 10.9441 -0.0 0.0 -0.0 13.8983 27.2941 -27.5994 15.7095 23.5921 -70.4029 1.0456 27.3816 -0.254717 26.3797 -0.163987 3.33618 0.855508 24.3962 4.7469 0.0 0.0 0.0 26.4674 28.2734 -11.5919 -19.6328 0.299827 2.98317 3.45088 -2.84778 -0.510121 -34.7639 0.0 0.0 -0.0 0.0 -0.0 -7.52849 13.5909 5.18717 -1.81053 -0.0703023 -0.268949 32.3369 -2.12379 4.14153 8.1034 -0.0 -0.0 0.0 0.0 0.0 
3321.81 717.564 -1536.64 -9.65415 67.173 5.23173 0.639319 1.00302 3.62163 0.646285 0.770698 3.67801 0.698929 0.0268961 3.75768 0.679763 0.619601 3.70641 -6.70178 16.306 -4.31533 -6.56927 33.3783 -1.0562 -0.0 0.0 -0.0 1.83535 18.5637 4.93872 -40.0615 -11.1058 61.5286 0.652744 -17.9187 0.102911 -22.9804 -1.34848 2.59082 0.418626 18.1258 9.91859 -0.0 0.0 -0.0 14.466 27.6549 -28.8776 17.209 22.0687 -68.8511 1.20006 30.7293 -0.329767 26.5742 -0.159471 3.36061 0.391426 23.1681 7.25412 0.0 0.0 0.0 29.2644 29.4438 -11.1285 -11.8575 0.303795 1.79112 -2.20854 -8.24511 0.339202 -36.9829 0.0 0.0 -0.0 0.0 -0.0 -8.98427 13.294 5.20368 0.642796 0.0270025 0.0949445 30.8006 0.80113 4.00144 11.6897 -0.0 -0.0 0.0 0.0 0.0 
3315.26 715.827 -1538.35 -11.3587 67.807 7.11387 0.807177 0.974719 3.78306 0.814839 0.7322 3.83731 0.866842 -0.0310413 3.90632 0.84603 0.58581 3.86233 -3.89206 16.3825 -4.7476 -3.33872 33.5702 -2.42199 -0.0 0.0 -0.0 1.75985 19.6294 4.89303 -41.66 -10.0325 61.3012 0.55301 -15.3202 0.0743784 -23.3017 -1.37447 2.62276 0.0869802 15.2893 6.79572 -0.0 0.0 -0.0 14.5085 28.4588 -28.8613 18.8048 21.6197 -68.2802 1.495 36.5205 -0.493298 27.7248 -0.131054 3.50483 0.0030713 22.0106 9.33299 0.0 0.0 0.0 27.0734 29.5518 -10.0021 -1.57619 0.0616828 0.234017 -6.10503 -13.7652 0.978439 -38.2107 0.0 0.0 -0.0 0.0 -0.0 -9.00891 13.3293 4.47124 1.09309 0.0465528 0.161276 28.2556 3.07426 3.74878 13.8184 -0.0 -0.0 0.0 0.0 0.0 
